<?xml version="1.0" standalone="no"?>
<!DOCTYPE svg PUBLIC "-//W3C//DTD SVG 20010904//EN"
 "http://www.w3.org/TR/2001/REC-SVG-20010904/DTD/svg10.dtd">
<svg version="1.0" xmlns="http://www.w3.org/2000/svg"
 width="2178.000000pt" height="905.000000pt" viewBox="0 0 2178.000000 905.000000"
 preserveAspectRatio="xMidYMid meet">

<g transform="translate(0.000000,905.000000) scale(0.100000,-0.100000)"
fill="#000000" stroke="none">
<path d="M5175 8158 c-121 -22 -399 -123 -725 -263 -133 -57 -597 -288 -925
-460 -55 -29 -183 -96 -284 -149 -203 -107 -413 -231 -626 -371 -145 -95 -595
-428 -770 -569 -55 -45 -127 -101 -159 -126 -96 -72 -465 -446 -554 -560 -84
-107 -206 -294 -223 -339 -6 -14 -44 -81 -85 -148 -100 -163 -162 -313 -243
-593 -46 -156 -80 -357 -98 -565 -11 -132 -4 -379 13 -460 58 -271 75 -339
102 -405 16 -41 37 -109 47 -150 33 -144 47 -184 106 -303 43 -85 74 -133 108
-166 26 -25 63 -68 81 -96 47 -71 257 -273 305 -295 46 -20 403 -216 420 -230
6 -5 47 -25 90 -44 44 -19 132 -58 195 -86 63 -29 142 -63 175 -77 33 -13 103
-44 155 -68 193 -89 297 -133 360 -153 186 -58 381 -114 515 -147 83 -21 191
-48 240 -61 50 -13 139 -33 200 -45 60 -11 118 -25 128 -31 41 -21 500 -99
732 -123 88 -9 216 -23 285 -31 69 -8 217 -21 330 -29 113 -7 261 -21 330 -31
76 -10 196 -17 307 -18 l183 -1 35 36 c35 34 36 39 50 155 8 65 17 250 20 409
3 160 10 369 16 465 5 96 10 245 11 331 1 248 -2 250 -261 223 -134 -14 -246
-18 -466 -18 -255 2 -312 5 -475 28 -102 14 -203 31 -225 36 -22 6 -107 26
-190 45 -150 34 -207 52 -385 120 -159 61 -621 299 -692 357 -24 19 -90 66
-148 106 -130 88 -164 121 -252 244 -102 142 -166 297 -193 465 -29 177 -30
277 -5 373 61 237 147 413 285 582 118 145 197 214 260 228 111 25 175 81 175
154 0 35 22 55 205 186 220 157 347 241 460 303 98 55 102 56 175 54 70 -1 80
2 149 38 41 22 96 60 123 84 43 39 156 97 167 86 7 -8 -51 -84 -98 -129 -63
-58 -104 -83 -244 -146 -258 -116 -472 -302 -644 -560 -97 -144 -178 -341
-203 -490 -22 -131 -24 -338 -5 -450 29 -179 65 -256 240 -520 68 -102 137
-214 155 -250 18 -36 35 -71 39 -79 7 -14 0 -76 -14 -133 -6 -24 -3 -29 20
-38 34 -13 76 -1 90 26 23 44 309 317 435 414 174 134 250 200 250 216 0 10
-14 14 -46 14 -52 0 -68 -7 -146 -67 -31 -23 -59 -43 -61 -43 -3 0 -1 17 4 37
4 21 8 109 8 195 0 87 3 162 6 168 10 16 23 655 16 750 -7 79 -8 83 -19 56 -8
-18 -16 -132 -22 -310 -6 -155 -15 -333 -20 -396 -5 -63 -14 -212 -21 -330
l-11 -215 -41 -38 c-44 -41 -57 -36 -36 15 18 45 13 190 -9 268 -21 72 -53
139 -87 185 -41 54 -124 228 -160 333 -58 171 -71 264 -56 410 18 179 58 307
149 468 48 85 175 186 252 199 19 3 39 10 45 16 5 5 32 9 61 9 68 0 102 -31
154 -142 46 -100 74 -198 94 -333 19 -126 32 -1333 16 -1460 -18 -140 -23
-125 55 -170 174 -100 363 -249 364 -288 1 -19 38 -37 78 -37 60 0 111 39 237
183 68 78 155 172 195 210 39 37 71 72 71 77 0 6 -10 11 -22 12 -32 2 -39 1
-79 -7 -36 -7 -36 -7 -79 64 -55 92 -96 213 -109 326 -13 107 -13 457 -1 570
5 44 16 204 24 355 8 151 17 289 21 305 26 111 74 255 115 341 71 152 107 167
197 82 31 -29 85 -91 122 -138 l66 -84 -2 -221 c0 -121 -6 -292 -12 -380 -19
-253 -25 -848 -12 -1020 13 -170 9 -191 -43 -259 -54 -71 -45 -106 26 -106 45
0 132 -31 176 -63 17 -13 63 -62 101 -109 95 -115 177 -163 211 -123 7 8 18
15 24 15 7 0 34 23 61 51 28 28 104 99 170 156 162 142 273 250 280 273 3 11
1 28 -4 39 -20 36 -47 35 -111 -5 -99 -61 -193 -57 -227 10 -39 74 -43 121
-43 471 0 187 5 432 11 545 5 113 14 291 18 395 6 157 12 201 30 254 47 134
66 157 249 290 86 64 112 88 112 106 0 15 -7 25 -22 29 -54 14 -98 5 -175 -35
l-78 -41 -143 1 c-144 2 -254 21 -319 55 -49 25 -156 138 -218 230 -32 48 -68
94 -79 102 -24 17 -103 18 -143 3 -15 -6 -57 -38 -93 -72 -209 -199 -349 -327
-413 -378 l-72 -59 -38 42 c-22 24 -85 112 -142 198 -101 153 -142 204 -180
227 -16 9 -17 12 -5 16 69 24 392 113 500 138 74 17 152 36 172 41 31 7 42 17
59 51 20 39 21 47 10 119 -12 77 -67 320 -134 593 -19 77 -47 214 -61 305 -14
91 -40 239 -56 330 -17 91 -37 203 -46 250 -20 110 -35 139 -88 173 -45 28
-69 31 -151 15z"/>
<path d="M10105 6521 c-69 -17 -105 -54 -105 -107 0 -17 18 -68 40 -112 30
-60 57 -96 110 -146 39 -36 75 -66 80 -66 17 0 11 -17 -46 -138 -63 -133 -88
-203 -108 -300 -39 -187 -59 -625 -54 -1237 l3 -500 -32 -61 c-19 -36 -50 -75
-77 -98 -25 -20 -46 -43 -46 -50 0 -20 31 -43 71 -54 44 -12 172 -96 244 -162
60 -55 110 -75 168 -67 34 5 54 19 136 100 53 52 111 102 129 112 39 19 39 41
0 64 -36 21 -118 118 -118 139 0 9 -7 143 -15 297 -8 154 -15 409 -15 567 l0
287 33 24 c65 49 72 50 119 19 24 -16 95 -63 159 -106 l116 -77 8 -257 c5
-141 9 -377 9 -525 l1 -267 -37 -35 c-21 -19 -38 -39 -38 -46 0 -19 57 -78
151 -157 49 -40 89 -78 89 -83 0 -6 11 -21 25 -34 35 -36 77 -33 139 12 124
89 235 184 229 198 -3 8 2 18 11 21 25 10 20 18 -40 76 -95 90 -124 169 -129
348 -1 69 -8 202 -14 297 -12 182 -4 313 24 392 8 23 35 70 60 105 25 35 45
71 45 79 0 24 -45 54 -118 78 -97 32 -161 66 -302 163 -216 148 -218 149 -302
65 -40 -40 -191 -150 -230 -167 -22 -10 0 543 28 718 8 52 18 122 23 155 17
122 54 277 75 308 28 42 118 103 180 122 95 29 213 14 339 -42 71 -32 110 -76
133 -146 51 -164 -74 -299 -328 -351 -43 -9 -88 -16 -102 -16 -49 0 -35 -19
20 -26 176 -21 428 67 501 175 59 88 80 248 43 322 -49 96 -258 169 -482 169
-184 0 -305 -41 -443 -151 -42 -33 -97 -87 -123 -120 l-47 -61 -26 31 c-56 68
-65 165 -20 232 37 55 29 73 -39 88 -56 12 -62 12 -105 2z"/>
<path d="M8773 6465 c-150 -41 -241 -100 -305 -199 -46 -74 -48 -118 -6 -149
34 -26 120 -33 173 -15 72 24 111 119 63 153 -27 18 -20 34 34 78 46 37 158
56 221 37 49 -14 197 -108 234 -148 13 -14 41 -55 60 -90 87 -155 111 -334 60
-445 -33 -73 -90 -147 -174 -228 -78 -75 -153 -121 -235 -142 -83 -22 -132
-48 -136 -74 -8 -52 100 -62 222 -19 53 18 81 24 85 17 4 -6 16 -125 26 -263
15 -196 18 -340 17 -638 -3 -424 0 -404 -71 -550 -40 -82 -55 -98 -118 -126
-28 -13 -55 -28 -59 -35 -11 -19 38 -52 114 -78 73 -26 204 -89 262 -127 45
-30 95 -45 119 -36 10 4 46 41 82 82 102 119 120 137 184 172 33 19 60 38 60
43 0 6 -25 16 -55 23 -30 8 -67 25 -81 38 -42 40 -74 113 -72 164 0 25 8 189
17 365 9 176 21 409 26 518 6 109 10 247 10 306 l0 109 89 4 c78 4 99 9 163
41 97 47 114 66 96 103 -23 47 -40 51 -99 20 -45 -23 -55 -25 -64 -13 -22 30
-50 37 -102 23 -29 -8 -56 -10 -64 -5 -11 7 -14 72 -14 346 l0 338 -37 66
c-35 62 -116 151 -156 173 -9 5 -24 17 -34 26 -9 9 -52 38 -96 63 -136 79
-309 107 -439 72z"/>
<path d="M15345 6046 c-151 -37 -245 -150 -245 -293 0 -134 109 -231 296 -264
82 -14 241 -7 310 15 68 21 135 76 169 137 24 45 27 59 23 123 -7 147 -92 247
-238 280 -81 19 -243 20 -315 2z"/>
<path d="M7883 5326 c-51 -44 -65 -51 -163 -75 -168 -42 -306 -135 -350 -235
-15 -32 -22 -70 -23 -116 -1 -57 4 -78 30 -131 37 -74 93 -143 132 -164 16 -8
61 -41 101 -73 40 -33 107 -79 149 -102 103 -58 180 -111 197 -135 20 -28 18
-49 -3 -41 -55 21 -149 15 -191 -13 -7 -4 -17 -24 -21 -44 -19 -83 58 -143
174 -135 70 4 102 24 132 82 17 34 13 149 -7 186 -6 11 -63 55 -127 96 -325
211 -386 320 -293 517 37 78 74 115 142 139 74 26 106 23 163 -15 43 -27 57
-46 102 -132 80 -154 113 -279 120 -450 5 -137 2 -176 -32 -495 -23 -206 -20
-198 -58 -215 -17 -9 -44 -22 -58 -30 -15 -8 -67 -27 -115 -41 -89 -26 -150
-27 -192 -5 -10 5 -42 56 -71 113 -65 128 -80 207 -64 336 12 95 43 194 69
224 10 10 35 23 56 30 26 8 38 16 36 27 -6 28 -49 42 -123 39 -222 -10 -425
-246 -425 -495 0 -69 36 -216 73 -296 31 -68 118 -157 187 -192 86 -43 155
-45 270 -5 52 18 117 43 144 57 54 27 173 136 187 170 4 12 17 27 29 33 17 9
20 8 20 -13 0 -12 -5 -28 -11 -34 -14 -14 21 -97 59 -137 30 -32 122 -96 165
-114 65 -28 142 -8 216 55 26 23 82 62 123 87 129 79 135 103 21 97 -55 -2
-67 1 -102 26 -22 15 -52 49 -66 75 l-26 47 11 163 c5 90 15 235 21 323 8 126
8 182 -2 265 -8 58 -14 130 -14 161 0 52 3 61 50 120 27 35 53 67 58 70 5 4 7
17 5 30 -2 17 -14 27 -43 37 -190 67 -258 111 -405 263 -88 91 -103 99 -169
99 -44 0 -56 -5 -88 -34z"/>
<path d="M13783 5326 c-51 -44 -65 -51 -163 -75 -168 -42 -306 -135 -350 -235
-15 -32 -22 -70 -23 -116 -1 -57 4 -78 31 -131 39 -79 82 -133 135 -166 31
-19 171 -126 196 -149 3 -2 -10 1 -28 7 -95 33 -258 -22 -358 -121 -90 -90
-153 -241 -153 -367 0 -73 31 -202 70 -288 35 -80 121 -167 197 -202 89 -41
150 -42 264 -3 52 18 116 43 143 57 54 27 173 136 187 170 4 12 17 27 29 33
17 9 20 8 20 -13 0 -12 -5 -28 -11 -34 -14 -14 21 -97 59 -137 15 -16 60 -51
101 -77 l74 -49 -55 0 c-99 0 -92 43 -89 -585 1 -300 -1 -545 -4 -545 -9 0
-103 72 -265 204 -248 202 -354 291 -560 477 -447 403 -509 453 -565 465 -79
15 -86 -50 -96 -871 -8 -702 -21 -1073 -38 -1147 -13 -58 -5 -84 42 -125 35
-31 36 -31 192 -38 211 -10 413 -3 443 16 28 17 38 53 24 82 -6 13 -13 161
-17 372 -3 193 -8 374 -12 402 -4 41 -3 53 8 53 8 0 113 -77 234 -171 364
-284 540 -428 810 -664 231 -202 242 -208 312 -165 40 24 53 67 53 178 0 45 4
124 10 175 5 51 14 160 20 242 18 274 31 418 50 580 10 88 28 257 40 375 18
179 41 395 67 605 3 26 -1 47 -10 60 -14 19 -31 20 -249 26 -128 3 -228 6
-221 7 6 1 45 28 85 60 40 32 99 73 131 92 62 37 104 76 94 86 -4 4 -38 6 -77
5 -63 -2 -75 1 -110 26 -22 15 -51 49 -65 75 l-26 47 11 163 c5 90 15 235 21
323 8 126 8 182 -2 265 -8 58 -14 130 -14 161 0 52 3 61 50 120 27 35 53 67
58 70 5 4 7 17 5 30 -2 17 -14 27 -43 37 -153 54 -192 75 -282 150 -51 42
-114 101 -139 130 -57 65 -89 82 -153 82 -44 0 -56 -5 -88 -34z m43 -258 c43
-29 56 -47 107 -148 79 -158 108 -269 114 -440 5 -132 2 -168 -32 -490 -20
-183 -24 -204 -49 -208 -11 -2 -27 -12 -38 -22 -10 -9 -68 -32 -128 -50 -109
-33 -162 -36 -209 -10 -9 5 -41 55 -70 112 -65 128 -80 207 -64 336 12 95 43
194 69 224 10 10 35 23 56 30 26 8 38 17 38 29 0 16 9 14 68 -18 92 -51 169
-108 177 -134 9 -28 6 -30 -43 -17 -53 13 -123 3 -156 -23 -21 -16 -26 -29
-26 -63 0 -78 71 -122 181 -114 64 5 97 26 126 82 18 35 13 150 -9 186 -7 13
-64 56 -127 97 -323 211 -384 319 -291 516 36 76 71 112 136 137 73 28 113 26
170 -12z"/>
<path d="M17597 5297 c-23 -25 -70 -68 -105 -97 l-63 -52 -71 58 c-78 63 -163
103 -218 104 -29 0 -44 -8 -80 -46 -25 -25 -76 -68 -115 -96 -94 -69 -125 -98
-125 -119 0 -18 20 -29 48 -29 9 0 45 -14 79 -32 l63 -33 0 -55 c0 -30 7 -129
15 -220 29 -314 39 -963 19 -1228 l-6 -72 -116 -57 c-65 -31 -120 -59 -124
-61 -4 -2 -17 16 -29 40 -22 42 -22 49 -18 343 2 165 3 525 1 800 -3 477 -7
555 -32 555 -5 0 -12 11 -17 24 -8 23 -243 217 -288 238 -44 20 -95 -6 -176
-89 -81 -83 -195 -173 -219 -173 -8 0 -24 7 -34 15 -11 8 -27 15 -37 15 -21 0
-205 137 -269 201 -77 77 -113 68 -236 -64 -44 -46 -104 -102 -134 -124 -30
-22 -61 -47 -69 -56 -20 -25 -28 -21 -34 21 -11 64 -43 114 -126 195 -61 59
-86 77 -108 77 -33 0 -236 -127 -300 -188 -50 -46 -54 -69 -15 -78 15 -4 50
-19 78 -35 42 -24 53 -36 63 -70 16 -52 18 -726 3 -924 -10 -144 -25 -182 -99
-250 -27 -24 -34 -37 -29 -53 7 -22 62 -46 128 -57 26 -4 55 -23 106 -70 74
-69 104 -85 155 -85 45 0 64 16 138 115 35 48 88 112 117 143 28 30 52 59 52
62 0 4 -17 12 -37 19 -24 7 -55 31 -84 64 l-47 53 -3 239 c-2 132 1 333 5 446
l9 207 122 110 c67 60 131 115 142 122 18 12 29 7 95 -39 l75 -51 6 -88 c3
-48 1 -134 -3 -192 -5 -58 -9 -181 -10 -275 0 -93 -5 -251 -12 -350 l-11 -180
-39 -58 c-22 -32 -46 -61 -54 -64 -28 -11 -13 -43 39 -83 135 -104 303 -221
324 -226 46 -12 72 5 146 99 40 50 99 118 130 150 31 32 54 64 51 71 -3 7 -18
20 -33 29 -16 9 -53 45 -82 79 l-54 61 -3 235 c-3 140 1 274 8 331 6 53 18
151 25 218 17 151 56 247 125 306 24 20 46 37 49 37 3 -1 46 -38 95 -84 l89
-83 -12 -279 c-15 -374 -16 -990 -1 -1073 16 -91 43 -153 108 -249 87 -130 89
-134 74 -139 -8 -3 -66 -45 -130 -93 -121 -90 -339 -304 -406 -397 -21 -29
-56 -65 -79 -81 -55 -36 -70 -79 -73 -212 -2 -58 -10 -129 -18 -159 -22 -75
-26 -201 -10 -291 25 -146 135 -350 257 -479 44 -45 171 -133 259 -177 84 -42
218 -91 294 -107 39 -8 79 -19 90 -25 21 -11 96 -26 244 -48 52 -8 127 -19
165 -25 95 -15 212 -5 318 26 116 33 140 47 167 92 21 36 22 41 9 103 -7 36
-13 139 -14 230 -2 166 -10 212 -39 223 -9 4 -75 9 -148 12 -198 10 -430 56
-528 105 -73 37 -154 111 -173 157 -26 66 -30 170 -9 236 17 52 27 66 100 128
45 38 125 124 179 191 l98 123 95 34 c52 18 146 53 208 77 63 24 122 44 131
44 23 0 48 27 56 61 4 15 37 54 75 88 82 73 93 104 65 178 -23 60 -86 129
-132 144 -20 6 -54 9 -78 6 l-42 -6 -16 53 c-9 29 -17 64 -17 79 0 32 -33 57
-77 57 l-33 0 0 85 0 84 58 -37 c117 -76 132 -87 132 -104 0 -19 47 -48 78
-48 19 0 126 71 267 176 45 33 126 88 182 122 122 76 130 84 114 118 -25 56
-38 775 -19 1107 2 32 -4 44 -42 83 -25 25 -72 61 -105 81 -33 20 -104 65
-158 102 -98 66 -99 66 -178 70 l-80 3 -42 -45z m-14 -278 c30 -17 147 -114
162 -136 11 -16 14 -133 17 -575 l3 -556 -32 -40 c-18 -23 -33 -45 -33 -51 0
-5 -17 -23 -37 -40 l-37 -30 -45 42 c-25 24 -79 63 -120 87 l-73 45 6 265 c4
146 11 301 16 345 16 130 41 486 39 543 -2 49 0 55 32 82 36 31 67 37 102 19z
m87 -1906 c6 -5 -38 -43 -50 -43 -4 0 -13 13 -18 29 l-10 29 36 -5 c20 -3 39
-8 42 -10z"/>
<path d="M12420 5274 c-52 -19 -114 -41 -137 -48 -23 -8 -107 -39 -185 -70
-79 -30 -168 -60 -198 -66 -30 -6 -79 -25 -109 -43 -29 -17 -64 -38 -77 -45
-13 -7 -24 -18 -24 -23 0 -15 42 -48 62 -49 26 0 57 -47 80 -124 26 -84 27
-126 12 -566 -13 -357 -15 -369 -86 -418 -64 -44 -70 -54 -62 -101 8 -52 38
-72 274 -181 96 -45 202 -94 235 -110 118 -57 201 -68 256 -34 68 42 148 111
153 129 3 13 23 34 43 46 21 13 65 46 98 74 33 28 73 60 89 73 16 12 52 43 81
69 29 27 61 53 71 59 31 18 1 44 -50 44 -50 0 -54 -2 -212 -119 -149 -109
-173 -119 -238 -100 -25 7 -46 17 -46 21 0 3 -27 28 -61 55 -48 37 -67 61 -88
108 -26 56 -29 79 -42 276 -8 118 -14 349 -14 514 0 275 2 304 20 354 14 37
29 60 50 73 40 24 54 23 65 -8 19 -48 102 -169 153 -222 29 -30 75 -66 102
-80 97 -51 251 -26 308 50 30 41 17 71 -49 108 -30 18 -71 48 -90 68 -44 45
-116 161 -139 225 -22 59 -68 97 -116 96 -19 0 -77 -16 -129 -35z"/>
<path d="M4510 5103 c0 -5 5 -15 10 -23 8 -12 10 -11 10 8 0 12 -4 22 -10 22
-5 0 -10 -3 -10 -7z"/>
<path d="M20505 3500 c-145 -17 -316 -31 -748 -60 -160 -11 -282 -33 -309 -58
-17 -14 -18 -50 -18 -481 -1 -256 -5 -524 -10 -596 -5 -71 -17 -344 -26 -606
-21 -550 -23 -527 61 -558 44 -17 95 -22 301 -30 939 -38 1067 -39 1102 -8 29
26 35 92 36 349 1 298 23 273 -242 273 -108 0 -253 -2 -322 -4 l-125 -3 -7
128 c-4 71 -9 139 -10 152 -3 23 -3 23 127 23 194 0 372 18 418 41 63 32 70
59 65 294 -3 198 -4 203 -27 228 -22 23 -32 26 -100 26 -43 0 -105 -8 -145
-19 -63 -18 -229 -43 -295 -45 l-25 -1 1 159 1 159 109 2 c219 3 459 17 486
27 15 6 33 20 38 30 25 46 7 403 -25 512 -14 49 -51 77 -107 82 -24 1 -116 -6
-204 -16z"/>
<path d="M17903 3422 c-41 -26 -54 -159 -32 -322 5 -41 14 -167 19 -279 9
-198 7 -338 -20 -1199 -11 -355 -9 -380 40 -427 l31 -30 202 -9 c328 -15 1007
-13 1045 3 54 23 69 61 76 196 4 66 13 154 21 195 31 166 35 205 25 242 -6 20
-17 42 -26 49 -18 15 -156 14 -269 -2 -89 -12 -338 -20 -353 -10 -19 12 -17
1025 2 1211 22 202 21 292 -2 320 -16 20 -32 24 -133 32 -63 4 -178 15 -256
23 -151 16 -350 20 -370 7z"/>
<path d="M15047 3397 c-16 -11 -18 -50 -21 -442 -3 -307 -9 -469 -20 -565 -8
-74 -20 -202 -26 -285 -18 -283 -30 -440 -40 -545 -6 -58 -11 -149 -12 -204
-4 -150 -24 -144 480 -142 362 1 340 -5 336 98 -26 621 -27 758 -14 1066 18
409 15 908 -6 939 -25 39 -55 47 -199 54 -77 4 -201 14 -275 23 -164 19 -182
19 -203 3z"/>
<path d="M11175 3360 c-241 -37 -509 -134 -667 -241 -113 -77 -212 -195 -336
-401 -68 -112 -107 -208 -139 -338 -23 -94 -25 -118 -20 -230 8 -166 25 -231
99 -380 52 -104 74 -137 133 -196 125 -127 272 -208 446 -248 250 -57 783 -45
1059 24 179 45 311 133 439 290 87 108 137 197 169 305 23 77 66 310 83 447
23 187 -24 429 -112 580 -25 43 -80 108 -152 179 -137 136 -197 169 -374 205
-102 21 -144 24 -313 23 -136 -1 -231 -6 -315 -19z m155 -472 c54 -16 147 -76
175 -113 76 -99 126 -444 95 -645 -16 -101 -52 -164 -147 -258 -112 -112 -161
-134 -304 -140 -122 -5 -185 9 -262 58 -96 60 -135 212 -138 525 -2 225 15
296 100 412 103 142 311 211 481 161z"/>
<path d="M8390 3237 c-51 -13 -63 -52 -68 -212 -4 -131 6 -609 28 -1260 5
-154 10 -382 11 -507 1 -164 4 -232 13 -244 19 -26 95 -28 309 -10 203 17 321
39 351 65 39 34 42 63 35 371 -4 162 -12 376 -17 475 -6 99 -16 279 -22 400
-6 121 -15 265 -21 319 -5 55 -8 101 -5 103 10 10 153 -39 195 -67 73 -50 95
-90 99 -174 3 -83 3 -84 -94 -198 -39 -45 -76 -94 -83 -107 -19 -34 -6 -80 41
-152 40 -62 129 -241 208 -419 21 -47 83 -179 137 -295 55 -115 103 -225 107
-244 7 -41 32 -71 57 -71 32 0 108 39 170 87 138 108 301 248 324 277 33 44
58 112 51 138 -7 29 -90 131 -220 274 -55 61 -127 142 -158 180 -31 38 -75 86
-97 108 l-39 39 107 106 c115 114 147 164 200 310 36 98 40 169 15 265 -29
113 -97 204 -230 307 -96 74 -263 124 -451 134 -156 9 -920 11 -953 2z"/>
<path d="M8059 3195 c-7 -6 -241 -27 -309 -27 -30 0 -98 3 -150 7 -72 5 -99 3
-113 -7 -22 -16 -42 -100 -57 -238 -6 -58 -18 -159 -26 -225 -8 -66 -18 -173
-23 -239 -5 -70 -14 -122 -21 -126 -6 -4 -118 -10 -248 -14 -130 -4 -241 -8
-247 -9 -16 -3 -10 371 10 592 l17 194 -21 21 c-20 19 -31 21 -134 18 -62 -2
-141 -7 -177 -12 -36 -5 -136 -10 -222 -10 -147 0 -159 -1 -179 -21 -15 -15
-19 -27 -14 -42 4 -12 7 -29 7 -37 -1 -8 -6 -136 -12 -285 -9 -198 -9 -392 -1
-731 9 -417 4 -829 -14 -954 -6 -49 7 -91 36 -111 22 -16 31 -17 119 -3 52 8
194 18 314 21 199 5 221 8 238 25 16 16 18 27 12 51 -4 18 -8 192 -8 387 l-1
355 90 13 c116 16 517 31 530 20 6 -6 9 -125 7 -330 -2 -207 1 -333 8 -353 21
-63 18 -63 338 -74 201 -8 299 -8 312 -1 46 24 42 -22 75 1050 9 278 20 582
26 675 21 329 19 348 -50 398 -35 24 -98 37 -112 22z"/>
</g>
</svg>
